<?xml version="1.0"?>
<svg xmlns="http://www.w3.org/2000/svg" xmlns:xlink="http://www.w3.org/1999/xlink" version="1.1" id="Capa_1" x="0px" y="0px" viewBox="0 0 512.014 512.014" style="enable-background:new 0 0 512.014 512.014;" xml:space="preserve" width="512px" height="512px" class=""><g><g>
	<g>
		<path d="M259.712,42.982c-25.579,0.021-46.379,24.171-46.379,53.845c0,5.889,4.779,10.668,10.667,10.668    s10.667-4.779,10.667-10.667c0-17.92,11.243-32.512,25.045-32.512c5.888,0,10.667-4.779,10.667-10.667    S265.6,42.982,259.712,42.982z" data-original="#000000" class="active-path" data-old_color="#e9895b" fill="#e9895b"/>
	</g>
</g><g>
	<g>
		<path d="M380.309,0.338c-22.549,0-43.947,9.152-60.288,25.472C303.68,9.49,282.304,0.338,259.733,0.338    c-49.088,0-89.045,43.285-89.045,96.512c0,23.872,8.768,47.189,25.365,67.456c27.627,33.749,112.448,127.21,116.054,131.2    c2.027,2.219,4.885,3.499,7.893,3.499s5.867-1.28,7.936-3.499c3.605-3.968,88.427-97.429,116.053-131.2    c16.597-20.267,25.365-43.584,25.365-67.456C469.354,43.623,429.397,0.338,380.309,0.338z M427.456,150.781    C405.035,178.172,342.208,247.89,320,272.444c-22.208-24.555-85.035-94.272-107.456-121.664    C203.157,139.324,192,120.679,192,96.828c0-41.45,30.379-75.157,67.712-75.157c19.989,0,38.869,9.771,51.776,26.795    c4.053,5.312,12.971,5.312,17.003,0c12.928-17.024,31.808-26.795,51.797-26.795C417.621,21.671,448,55.399,448,96.85    C448,120.701,436.821,139.346,427.456,150.781z" data-original="#000000" class="active-path" data-old_color="#e9895b" fill="#e9895b"/>
	</g>
</g><g>
	<g>
		<path d="M510.891,411.559c-14.827-29.632-47.595-44.736-79.744-36.672l-69.12,17.28c-3.072-26.645-18.837-42.368-50.389-50.261    l-185.045-41.109c0.576-4.053,1.024-7.936,1.344-11.563c0.277-3.243-0.917-6.443-3.285-8.661    C106.369,263.25,33.26,257.64,11.287,256.338c-3.051-0.085-5.824,0.875-7.957,2.88C1.216,261.223,0,264.06,0,267.004v192    c0,5.888,4.779,10.667,10.667,10.667h64c4.608,0,8.704-2.965,10.133-7.36c0.277-0.853,1.728-5.333,3.925-12.267l152.832,50.944    c17.941,6.763,30.315,10.688,44.224,10.688c21.632-0.021,46.976-9.472,102.656-32.277l117.333-53.333    c2.624-1.195,4.672-3.413,5.632-6.144C512.363,417.148,512.192,414.162,510.891,411.559z M66.88,448.338H21.312V278.439    c34.283,2.709,71.296,8.597,84.736,15.125C100.395,340.284,74.816,423.271,66.88,448.338z M379.947,459.794    c-89.685,36.736-92.779,35.584-131.243,21.077L94.997,429.65c8.768-29.035,20.992-72.107,27.989-107.776l183.744,40.832    c23.637,5.909,33.131,15.211,34.432,34.688l-20.48,5.12c-7.595,1.92-15.659,2.112-23.381,0.555l-92.544-18.517    c-5.867-1.237-11.392,2.581-12.544,8.363c-1.152,5.781,2.581,11.392,8.363,12.544l92.565,18.517    c4.8,0.96,9.728,1.429,14.635,1.429c6.101,0,12.224-0.725,18.091-2.219l28.608-7.147c0.043,0,0.064,0,0.107,0l81.728-20.437    c18.645-4.629,37.611,1.877,49.387,16.128L379.947,459.794z" data-original="#000000" class="active-path" data-old_color="#e9895b" fill="#e9895b"/>
	</g>
</g></g> </svg>
