<svg xmlns="http://www.w3.org/2000/svg" viewBox="0 0 182.05 50.4"><defs><style>.cls-1{fill:#1c2748;}</style></defs><title>Middel 1</title><g id="Laag_2" data-name="Laag 2"><g id="Laag_1-2" data-name="Laag 1"><path class="cls-1" d="M7.1,31.65q-1-1.4-2-3t-2-3.15a6.52,6.52,0,0,1-1.25-4.18A5.87,5.87,0,0,1,3.3,17.93,8.31,8.31,0,0,1,6.6,15.7,11.87,11.87,0,0,1,11,14.9a10.13,10.13,0,0,1,3.22.53A8.81,8.81,0,0,1,17,17a8.23,8.23,0,0,1,2,2.45,6.64,6.64,0,0,1,.77,3.22l-.65.2A7.53,7.53,0,0,0,18,19.7a6.6,6.6,0,0,0-1.95-2,5,5,0,0,0-2.23-.8,2.5,2.5,0,0,0-1.83.45,2.51,2.51,0,0,0-.87,2.08A5.46,5.46,0,0,0,12.4,22.6q.85,1.3,2,3l2,3.2a6,6,0,0,1,1.15,4A5.32,5.32,0,0,1,15.9,36a9,9,0,0,1-3.48,2.05A13.61,13.61,0,0,1,8,38.8a10.59,10.59,0,0,1-3-.43A6.57,6.57,0,0,1,2.45,37,7.05,7.05,0,0,1,.67,34.43,10,10,0,0,1,0,30.5l.85-.15A7.87,7.87,0,0,0,1.6,34a5.72,5.72,0,0,0,1.77,2.13,4,4,0,0,0,2.13.75,2.79,2.79,0,0,0,1.8-.45,2.18,2.18,0,0,0,.9-1.8,5.42,5.42,0,0,0-1.15-3Z"/><path class="cls-1" d="M21,24.4a11.32,11.32,0,0,1,2.3-3.95,13.2,13.2,0,0,1,3.4-2.7,15.73,15.73,0,0,1,4-1.55,18.41,18.41,0,0,1,4.23-.5,11.3,11.3,0,0,1,3.95.65,9.4,9.4,0,0,1,3,1.7,6.37,6.37,0,0,1,1.75,2.4A5.61,5.61,0,0,1,44,23.2a5.75,5.75,0,0,1-1,2.65A8.41,8.41,0,0,1,40.3,28.2a15.49,15.49,0,0,1-4.37,1.67,24.17,24.17,0,0,1-6.23.52q.8,3.5,4.95,4.55a8,8,0,0,0,3.8.17,8.61,8.61,0,0,0,3.13-1.32,9.11,9.11,0,0,0,2.35-2.37,11.14,11.14,0,0,0,1.47-3.08l1,.3a11.22,11.22,0,0,1-2.1,4.45,13.88,13.88,0,0,1-3.53,3.17,16.13,16.13,0,0,1-4.45,1.93,17.57,17.57,0,0,1-4.93.6,15.43,15.43,0,0,1-5.75-1.08,9,9,0,0,1-3.85-2.9,8.78,8.78,0,0,1-1.65-4.52A14.32,14.32,0,0,1,21,24.4Zm8.5,4.8a5.25,5.25,0,0,0,2.85-.9,8.76,8.76,0,0,0,2.15-2.08,11.39,11.39,0,0,0,1.45-2.65,13.38,13.38,0,0,0,.75-2.68,6.12,6.12,0,0,0,0-2.12q-.18-.87-.67-1a2.38,2.38,0,0,0-1.37.13A4.55,4.55,0,0,0,33,19a9.92,9.92,0,0,0-1.65,2.35,17.61,17.61,0,0,0-1.4,3.8,20.8,20.8,0,0,0-.45,2.15A7.32,7.32,0,0,0,29.5,29.2Z"/><path class="cls-1" d="M50.15,16.2a8.39,8.39,0,0,0,3.58,1q2.07.15,4,.2a11.09,11.09,0,0,1,2.1.38,2.71,2.71,0,0,1,1.5,1.05A3.74,3.74,0,0,1,61.87,21a12.93,12.93,0,0,1-.62,3.6l-.37,1.38-.7,2.55L59.47,31q-.33,1.18-.37,1.33a2.07,2.07,0,0,0,.15,1.75,2.25,2.25,0,0,0,1.35,1,2.3,2.3,0,0,0,1.77-.23,5.71,5.71,0,0,0,1.57-1.27,10.41,10.41,0,0,0,1.23-1.73,7.68,7.68,0,0,0,.73-1.62l.65.15A17.11,17.11,0,0,1,65,34.48a9.71,9.71,0,0,1-2.1,2.63,6.79,6.79,0,0,1-2.62,1.4,11.8,11.8,0,0,1-3.15.4q-4.05,0-5.78-1.85t-1-5.8q.15-.7.57-2.35t1-3.5l1-3.52q.47-1.67.67-2.42-.85-.1-2-.35a12.61,12.61,0,0,1-1.83-.5q-.55,3-1.45,6.45T46.2,31.6l-.9,0q.45-1.1.93-2.65t.92-3.32Q47.6,23.9,48,22t.7-3.77A13.87,13.87,0,0,1,46,16.43a8.55,8.55,0,0,1-2-2.73,4.58,4.58,0,0,1-.43-2.9,5.32,5.32,0,0,1,1.08-2.43,3.69,3.69,0,0,1,1.9-1.27,2.07,2.07,0,0,1,2,.48,5.37,5.37,0,0,1,1.4,2.82,18.6,18.6,0,0,1,.15,5.8Z"/><path class="cls-1" d="M66.55,24.4a11.32,11.32,0,0,1,2.3-3.95,13.2,13.2,0,0,1,3.4-2.7,15.73,15.73,0,0,1,4-1.55,18.41,18.41,0,0,1,4.23-.5,11.3,11.3,0,0,1,3.95.65,9.4,9.4,0,0,1,3,1.7,6.37,6.37,0,0,1,1.75,2.4,5.61,5.61,0,0,1,.4,2.75,5.75,5.75,0,0,1-1,2.65,8.41,8.41,0,0,1-2.65,2.35,15.49,15.49,0,0,1-4.37,1.67,24.17,24.17,0,0,1-6.23.52Q76,33.9,80.2,35a8,8,0,0,0,3.8.17,8.61,8.61,0,0,0,3.13-1.32,9.11,9.11,0,0,0,2.35-2.37,11.14,11.14,0,0,0,1.47-3.08l1,.3a11.22,11.22,0,0,1-2.1,4.45,13.88,13.88,0,0,1-3.53,3.17,16.13,16.13,0,0,1-4.45,1.93,17.57,17.57,0,0,1-4.93.6,15.43,15.43,0,0,1-5.75-1.08,9,9,0,0,1-3.85-2.9A8.78,8.78,0,0,1,65.7,30.3,14.32,14.32,0,0,1,66.55,24.4ZM75,29.2a5.25,5.25,0,0,0,2.85-.9A8.76,8.76,0,0,0,80,26.23a11.39,11.39,0,0,0,1.45-2.65,13.38,13.38,0,0,0,.75-2.68,6.12,6.12,0,0,0,0-2.12q-.18-.87-.67-1a2.38,2.38,0,0,0-1.37.13A4.55,4.55,0,0,0,78.6,19a9.92,9.92,0,0,0-1.65,2.35,17.61,17.61,0,0,0-1.4,3.8,20.8,20.8,0,0,0-.45,2.15A7.32,7.32,0,0,0,75,29.2Z"/><path class="cls-1" d="M121.85,30.5a17.09,17.09,0,0,1-1.57,4.13,9.71,9.71,0,0,1-2.1,2.63,6.79,6.79,0,0,1-2.62,1.4,11.78,11.78,0,0,1-3.15.4q-4.05,0-5.78-1.85t-1-5.8q.15-.9.45-2t.63-2.27q.32-1.15.65-2.25t.58-2a4,4,0,0,0-.08-2.62,2.17,2.17,0,0,0-1.42-1.42q-1.05-.35-2.42.92t-2.43,4.92v.1L99.2,33.4a8.49,8.49,0,0,0-.3,2,3.32,3.32,0,0,0,.95,2.32l-.15.8q-1.1.15-2,.22a13.76,13.76,0,0,1-1.85,0A10.34,10.34,0,0,1,93,38.38a3.81,3.81,0,0,1-1.9-1.25,4.36,4.36,0,0,1-.85-2.32,10.93,10.93,0,0,1,.4-3.65l2.15-7.95a6.82,6.82,0,0,0,.25-1.1q.1-.65.15-1.35a12.49,12.49,0,0,0,0-1.35,2.61,2.61,0,0,0-.23-1,.91.91,0,0,0-1.25-.6l-.2-.4A9.59,9.59,0,0,1,94,16.13a7,7,0,0,1,2.6-.42,5.48,5.48,0,0,1,2.25.42,4.61,4.61,0,0,1,1.58,1.13,5.56,5.56,0,0,1,1,1.63,7,7,0,0,1,.48,2,8.45,8.45,0,0,1,1.77-2.48A10.16,10.16,0,0,1,106,16.7a9.31,9.31,0,0,1,2.58-.9,8.7,8.7,0,0,1,2.63-.1,7.19,7.19,0,0,1,2.7.82,6,6,0,0,1,2,1.8,5.73,5.73,0,0,1,1,2.75,9.06,9.06,0,0,1-.48,3.67q-.05.2-.37,1.38l-.7,2.52Q115,30,114.7,31.18t-.35,1.32a2.17,2.17,0,0,0,.15,1.8,2.36,2.36,0,0,0,3.1.72,6,6,0,0,0,1.58-1.3A9.5,9.5,0,0,0,120.4,32a8.36,8.36,0,0,0,.7-1.62Z"/><path class="cls-1" d="M137.2,30.35a18.52,18.52,0,0,1-1.62,4.13,9.71,9.71,0,0,1-2.1,2.63,6.79,6.79,0,0,1-2.62,1.4,11.8,11.8,0,0,1-3.15.4q-4.05,0-5.77-1.85t-1-5.8q.3-1.55.85-3.45t1.08-3.68q.53-1.77.88-3.17a4.68,4.68,0,0,0,.2-2,1,1,0,0,0-1.25-.6l-.2-.35a8,8,0,0,1,3.32-1.55,7.64,7.64,0,0,1,3.48,0,7.33,7.33,0,0,1,1.65.67,3.11,3.11,0,0,1,1.2,1.25,4.76,4.76,0,0,1,.5,2.1,10,10,0,0,1-.5,3.13q-.05.15-.23.8t-.45,1.6l-.58,2q-.3,1.05-.55,2t-.45,1.6a5.44,5.44,0,0,0-.2.77,2,2,0,0,0,.18,1.75,2.34,2.34,0,0,0,1.32,1,2.3,2.3,0,0,0,1.78-.23,5.72,5.72,0,0,0,1.57-1.27,10.43,10.43,0,0,0,1.23-1.73,7.68,7.68,0,0,0,.73-1.62l.7.15Zm-6.25-25.5a4.89,4.89,0,0,1,1.9.38,4.56,4.56,0,0,1,1.55,1,5.14,5.14,0,0,1,1,1.55,4.71,4.71,0,0,1,.38,1.88,4.85,4.85,0,0,1-6.73,4.48,5.12,5.12,0,0,1-1.55-1,4.55,4.55,0,0,1-1-1.55,4.89,4.89,0,0,1-.37-1.9,4.71,4.71,0,0,1,.38-1.87,5,5,0,0,1,2.6-2.6A4.7,4.7,0,0,1,130.95,4.85Z"/><path class="cls-1" d="M154.95,30.25a12.88,12.88,0,0,1-2,4,11.25,11.25,0,0,1-6,4.1,12.4,12.4,0,0,1-3.35.48,9,9,0,0,1-3.32-.6,6.19,6.19,0,0,1-3.93-4.77,9.42,9.42,0,0,1,.25-4.12L139.9,17h-2.75l.45-1.95h2.85l2-7.55a6.86,6.86,0,0,0,.25-1.1q.1-.65.15-1.35a12.49,12.49,0,0,0,0-1.35,2.61,2.61,0,0,0-.22-1.05,1,1,0,0,0-1.25-.6l-.2-.4a9,9,0,0,1,2.4-1.2A8.2,8.2,0,0,1,146.2,0a5,5,0,0,1,3,.85A5,5,0,0,1,150.95,3,7.92,7.92,0,0,1,151.52,6a11.29,11.29,0,0,1-.37,3.1l-1.65,6h4.7L153.75,17h-4.8l-3.6,13.35a3.63,3.63,0,0,0,.18,2.63,2.94,2.94,0,0,0,1.72,1.63,6.25,6.25,0,0,0,1.78.25,3.87,3.87,0,0,0,1.82-.48,5.66,5.66,0,0,0,1.72-1.5A9.86,9.86,0,0,0,154,30.05Z"/><path class="cls-1" d="M168.4,31.9l3-11.35q.95-3.65,3.4-4.37T182,18l-.2.55a1.82,1.82,0,0,0-.87.95,15.36,15.36,0,0,0-.72,2.1l-4.8,17.8c-.07.27-.17.65-.33,1.15s-.28.88-.37,1.15a11.75,11.75,0,0,1-2.25,3.95,12.93,12.93,0,0,1-3.28,2.7,14.61,14.61,0,0,1-3.92,1.55,18.09,18.09,0,0,1-4.2.5,12.35,12.35,0,0,1-3.22-.42,9,9,0,0,1-2.8-1.27A7.88,7.88,0,0,1,153,46.58a7.18,7.18,0,0,1-1.1-3,4.47,4.47,0,0,1,1.77-1.83,3.93,3.93,0,0,1,2.1-.45,6,6,0,0,1,2.17.6,10.81,10.81,0,0,1,2.1,1.32l-.3,1.2q-.2.8-.35,1.63a5.19,5.19,0,0,0-.08,1.5.85.85,0,0,0,.63.82,2.32,2.32,0,0,0,1.35-.12,4.2,4.2,0,0,0,1.63-1.15,11.68,11.68,0,0,0,1.65-2.37A16.74,16.74,0,0,0,166,41q0-.2.2-.75t.2-.8l.95-3.5a9.31,9.31,0,0,1-8,3.1,7.23,7.23,0,0,1-2.67-.8,5.33,5.33,0,0,1-2-1.77,6.27,6.27,0,0,1-1-2.75A10,10,0,0,1,154.1,30L156,23.2q.1-.45.22-1.1a11.69,11.69,0,0,0,.18-1.35,9.44,9.44,0,0,0,0-1.35,4,4,0,0,0-.2-1,1,1,0,0,0-1.25-.6l-.2-.4a8.14,8.14,0,0,1,2.38-1.2,8.31,8.31,0,0,1,2.58-.45,5,5,0,0,1,3,.85,5.26,5.26,0,0,1,1.72,2.17,7.28,7.28,0,0,1,.58,2.92,12,12,0,0,1-.4,3.1l-2,7.1a4,4,0,0,0,.07,2.63,2.16,2.16,0,0,0,1.43,1.42,2.3,2.3,0,0,0,2.1-.57A8,8,0,0,0,168.4,31.9Z"/></g></g></svg>